/* XPM */
static char * ghost_pink_xpm[] = {
"16 18 40 1",
" 	c None",
".	c #ED6BCD",
"+	c #EF6BCC",
"@	c #EE6BCC",
"#	c #EE6ACC",
"$	c #ED6BCC",
"%	c #BC5BA6",
"&	c #7E4876",
"*	c #805284",
"=	c #D563B9",
"-	c #E167C2",
";	c #8B4C80",
">	c #744E79",
",	c #A45393",
"'	c #EF6BCD",
")	c #2A3741",
"!	c #42C3E6",
"~	c #46D9FF",
"{	c #417C96",
"]	c #413447",
"^	c #378299",
"/	c #9A5A96",
"(	c #EE6BCD",
"_	c #7F4777",
":	c #2F5767",
"<	c #40B8D9",
"[	c #974F8A",
"}	c #BD5BA6",
"|	c #282C34",
"1	c #485F7A",
"2	c #3DA3BF",
"3	c #44CEF2",
"4	c #35778D",
"5	c #A35393",
"6	c #35788D",
"7	c #3EADCC",
"8	c #4D3851",
"9	c #403447",
"0	c #AF579C",
"a	c #B0579C",
"     .+@@+.     ",
"   #@@@@@@@@.   ",
"  @@@@@@@@@@@@  ",
" $@@@@@@@@@@@@# ",
" @@@@@@@@@@@@@@ ",
"$@@@%&*=@@-;>,@'",
"@@@=)!~{=@]^~!/(",
"@@@_:~~<[}|!~~1@",
"@@@_)2345=|6378@",
"@@@=]||9=@_|||0@",
"@@@@=a,-@@@},-@@",
"@@@@@@@@@@@@@@@@",
"@@@@@@@@@@@@@@@@",
"@@@@@@@@@@@@@@@@",
"@@@@@@@@@@@@@@@@",
"@@@@@@@@@@@@@@@@",
"@@@@@@@@@@@@@@@@",
" @@  @@  @@  @@ "};
