/* XPM */
static char * ghost_xpm[] = {
"16 18 28 1",
" 	c None",
".	c #FFFDFD",
"+	c #FFFCFC",
"@	c #F2EFEF",
"#	c #5E6066",
"$	c #353941",
"%	c #505359",
"&	c #949498",
"*	c #5D6167",
"=	c #BCBBBD",
"-	c #BCBBBE",
";	c #282C34",
">	c #F2F2F2",
",	c #D7D8D9",
"'	c #AEAEB1",
")	c #A1A2A6",
"!	c #FFFFFF",
"~	c #797A7F",
"{	c #C9C8CA",
"]	c #A1A3A7",
"^	c #86898D",
"/	c #5E6167",
"(	c #BCBDBF",
"_	c #939498",
":	c #787A7F",
"<	c #E4E2E3",
"[	c #86878B",
"}	c #FFFEFE",
"     ..++..     ",
"   +++++++++.   ",
"  .+++++++++++  ",
" ++++++++++++++ ",
" ++++++++++++++ ",
"++++++@+++++@++.",
".++++#$%@++&$*=.",
"++++-;>,'++$)!~+",
"++++{;]^{++#/(_+",
".++++':'+++<[_@.",
".++++++++++++++}",
"!+++++++++++++.!",
"!}++++++++++++}!",
"!!}.++++++++.}!!",
"!!!!++++++++!!!!",
"!!!!++++++++!!!!",
"!!!!+++..+++!!!!",
" !!  .+  .+  !! "};
